<svg width="198" height="36" viewBox="0 0 198 36" fill="none" xmlns="http://www.w3.org/2000/svg">
<g clip-path="url(#clip0_1190_1049)">
<path d="M1.82119 14.8756C2.90687 12.8535 4.55626 11.1916 6.56833 10.0922C8.69534 8.90763 11.0899 8.28888 13.5234 8.29496C16.5173 8.2444 19.4385 9.21993 21.8033 11.0599C24.164 12.8987 25.7814 15.5305 26.3573 18.4701H17.6358C17.3847 17.5486 16.8257 16.7412 16.0522 16.1827C15.2787 15.6242 14.3375 15.3482 13.3854 15.401C12.6884 15.3784 11.9965 15.528 11.3707 15.8366C10.745 16.1452 10.2047 16.6033 9.79749 17.1705C8.82329 18.6299 8.34868 20.3669 8.4451 22.1198C8.35054 23.89 8.82449 25.6439 9.79749 27.1245C10.211 27.6831 10.7533 28.1333 11.3781 28.4366C12.0028 28.7399 12.6915 28.8873 13.3854 28.8664C14.3302 28.9222 15.2658 28.6541 16.0383 28.1064C16.8108 27.5586 17.3742 26.7638 17.6358 25.8526H26.3573C25.7599 28.7404 24.1794 31.3305 21.8861 33.1798C19.5256 35.0278 16.6015 36.0043 13.6062 35.9447C11.181 35.9972 8.78393 35.4159 6.65113 34.2581C4.60456 33.1643 2.92474 31.491 1.82119 29.447C0.646437 27.1881 0.0669374 24.666 0.137606 22.1198C0.0822155 19.6017 0.661243 17.1102 1.82119 14.8756Z" fill="#1C1C1C"/>
<path d="M35.8798 34.2305C33.8123 33.1393 32.0985 31.4799 30.9395 29.4471C29.6735 27.2158 29.0256 24.6861 29.0627 22.1199C29.0092 19.5763 29.6383 17.0649 30.8843 14.848C32.0599 12.8157 33.7939 11.1648 35.8798 10.0922C38.0535 8.925 40.4791 8.308 42.9453 8.29498C45.4032 8.266 47.8302 8.84536 50.0109 9.98162C52.1071 11.0652 53.843 12.737 55.0064 14.7927C56.262 17.0258 56.8914 19.5576 56.828 22.1199C56.8735 24.6573 56.2347 27.1601 54.9788 29.3641C53.798 31.4159 52.0547 33.0855 49.9557 34.1752C47.7589 35.3214 45.3115 35.9011 42.8349 35.8618C40.4174 35.9045 38.0272 35.3439 35.8798 34.2305ZM46.9197 27.0968C47.4962 26.4119 47.9319 25.6197 48.2019 24.7656C48.4719 23.9115 48.5707 23.0124 48.4929 22.1199C48.6104 20.3473 48.0477 18.5966 46.9197 17.2259C46.4052 16.6949 45.7895 16.2728 45.1092 15.9846C44.4289 15.6964 43.6978 15.5478 42.9591 15.5478C42.2205 15.5478 41.4894 15.6964 40.8091 15.9846C40.1287 16.2728 39.5131 16.6949 38.9986 17.2259C37.8705 18.598 37.2991 20.345 37.3978 22.1199C37.282 23.8961 37.8333 25.6516 38.9434 27.0415C39.4261 27.5985 40.0245 28.043 40.6968 28.3439C41.369 28.6448 42.0988 28.7948 42.8349 28.7835C43.5968 28.8133 44.3562 28.678 45.0611 28.387C45.7661 28.0959 46.4 27.6558 46.9197 27.0968Z" fill="#1C1C1C"/>
<path d="M61.1052 14.8756C62.0275 12.9095 63.4929 11.2495 65.3279 10.0922C67.1137 8.93597 69.1909 8.31263 71.317 8.29493C72.9817 8.28662 74.6255 8.6652 76.1194 9.40092C77.4955 10.088 78.6735 11.1159 79.5417 12.3871V0H87.8216V35.53H79.5417V31.7143C78.7383 33.0112 77.6047 34.0705 76.2574 34.7834C74.7287 35.5624 73.0318 35.9517 71.317 35.917C69.2006 35.9416 67.1216 35.3562 65.3279 34.2304C63.4959 33.0453 62.0328 31.3688 61.1052 29.3917C60.0209 27.1241 59.4821 24.6336 59.532 22.1198C59.4782 19.6145 60.0173 17.132 61.1052 14.8756ZM77.8306 17.3364C77.3033 16.7666 76.6621 16.3146 75.9488 16.0097C75.2355 15.7048 74.466 15.5539 73.6906 15.5668C72.9172 15.5504 72.149 15.6969 71.4359 15.997C70.7227 16.2971 70.0804 16.744 69.5507 17.3088C68.9647 17.9582 68.514 18.7182 68.2249 19.5443C67.9358 20.3704 67.8142 21.246 67.8671 22.1198C67.7669 23.9007 68.3718 25.6494 69.5507 26.9862C70.0843 27.5484 70.7265 27.996 71.4382 28.3018C72.1499 28.6077 72.9162 28.7654 73.6906 28.7654C74.465 28.7654 75.2313 28.6077 75.943 28.3018C76.6547 27.996 77.2969 27.5484 77.8306 26.9862C78.4218 26.328 78.8773 25.5592 79.171 24.7241C79.4647 23.889 79.5907 23.0039 79.5417 22.1198C79.6244 20.3615 79.0092 18.6419 77.8306 17.3364Z" fill="#1C1C1C"/>
<path d="M105.569 35.9447C103.118 35.9939 100.695 35.4133 98.531 34.258C96.5393 33.1377 94.9108 31.4678 93.8391 29.447C92.6164 27.2008 91.9893 24.678 92.0175 22.1198C92.0046 19.5897 92.6312 17.0975 93.8391 14.8755C94.9169 12.8476 96.5683 11.1836 98.5862 10.0921C100.71 8.92554 103.091 8.30784 105.514 8.2949C107.905 8.25435 110.268 8.81524 112.386 9.92624C114.365 10.9976 116.001 12.608 117.106 14.5714C118.278 16.7328 118.868 19.1628 118.817 21.6221C118.815 22.4267 118.759 23.2303 118.651 24.0276H100.159C100.18 25.4591 100.754 26.8269 101.76 27.8433C102.848 28.6808 104.199 29.1023 105.569 29.0322V35.9447ZM110.399 19.576C110.429 18.9457 110.316 18.3167 110.067 17.737C109.819 17.1572 109.441 16.6419 108.964 16.2304C107.965 15.3812 106.685 14.9373 105.376 14.9861C104.119 14.9459 102.892 15.3689 101.926 16.1751C100.951 17.0614 100.325 18.2676 100.159 19.576H110.399Z" fill="#1C1C1C"/>
<path d="M135.239 0L127.262 35.53H118.982L127.152 0H135.239Z" fill="#1C1C1C"/>
<path d="M137.142 14.8755C138.084 12.9135 139.557 11.256 141.393 10.0921C143.167 8.93251 145.236 8.30862 147.354 8.29489C149.081 8.25949 150.789 8.65878 152.322 9.45618C153.661 10.1455 154.787 11.1875 155.579 12.47V8.79259H163.859V35.5299H155.579V31.7419C154.749 33.0192 153.609 34.0654 152.267 34.7834C150.738 35.5623 149.042 35.9517 147.327 35.917C145.227 35.9451 143.165 35.359 141.393 34.2304C139.56 33.0381 138.09 31.3643 137.142 29.3917C136.085 27.1161 135.556 24.6297 135.597 22.1198C135.548 19.618 136.077 17.1386 137.142 14.8755ZM153.895 17.3364C153.368 16.7666 152.727 16.3145 152.014 16.0096C151.3 15.7047 150.531 15.5538 149.756 15.5668C148.982 15.5503 148.214 15.6969 147.501 15.997C146.788 16.2971 146.145 16.744 145.616 17.3087C145.026 17.9568 144.571 18.716 144.277 19.5419C143.983 20.3679 143.857 21.2442 143.904 22.1198C143.812 23.9045 144.427 25.6537 145.616 26.9861C146.149 27.5483 146.791 27.9959 147.503 28.3018C148.215 28.6077 148.981 28.7654 149.756 28.7654C150.53 28.7654 151.296 28.6077 152.008 28.3018C152.72 27.9959 153.362 27.5483 153.895 26.9861C154.483 26.3266 154.934 25.557 155.223 24.7217C155.512 23.8865 155.633 23.0021 155.579 22.1198C155.669 20.3653 155.064 18.6462 153.895 17.3364Z" fill="#1C1C1C"/>
<path d="M181.191 9.56682C182.696 8.73441 184.386 8.29687 186.104 8.29493C188.219 8.27954 190.296 8.8643 192.093 9.98157C193.916 11.1539 195.377 12.8098 196.316 14.765C197.412 17.0573 197.942 19.5796 197.862 22.1198C197.921 24.6315 197.392 27.1222 196.316 29.3917C195.37 31.357 193.911 33.029 192.093 34.2304C190.3 35.3562 188.221 35.9416 186.104 35.917C184.398 35.9552 182.709 35.5656 181.191 34.7834C179.847 34.0942 178.705 33.0648 177.879 31.7972V35.53H169.6V0H177.879V12.5806C178.686 11.2906 179.832 10.2479 181.191 9.56682ZM187.843 17.3088C187.31 16.7405 186.663 16.2915 185.945 15.9913C185.227 15.6911 184.453 15.5464 183.675 15.5668C182.9 15.5539 182.131 15.7048 181.417 16.0097C180.704 16.3146 180.063 16.7666 179.535 17.3364C178.357 18.6419 177.742 20.3615 177.824 22.1198C177.733 23.896 178.348 25.6361 179.535 26.9585C180.069 27.5207 180.711 27.9683 181.423 28.2742C182.135 28.5801 182.901 28.7378 183.675 28.7378C184.45 28.7378 185.216 28.5801 185.928 28.2742C186.64 27.9683 187.282 27.5207 187.815 26.9585C188.409 26.3067 188.869 25.5436 189.167 24.7132C189.466 23.8828 189.597 23.0014 189.554 22.1198C189.602 21.2443 189.475 20.368 189.181 19.542C188.887 18.716 188.433 17.9568 187.843 17.3088Z" fill="#1C1C1C"/>
<path d="M112.22 35.9171C114.339 35.9171 116.056 34.1964 116.056 32.0738C116.056 29.9512 114.339 28.2305 112.22 28.2305C110.101 28.2305 108.384 29.9512 108.384 32.0738C108.384 34.1964 110.101 35.9171 112.22 35.9171Z" fill="#FF7070"/>
</g>
<defs>
<clipPath id="clip0_1190_1049">
<rect width="198" height="36" fill="white"/>
</clipPath>
</defs>
</svg>
