<svg width="1598" height="290" viewBox="0 0 1598 290" fill="none" xmlns="http://www.w3.org/2000/svg">
<path d="M14.7014 119.831C23.4636 103.542 36.7754 90.1539 53.0142 81.298C70.1807 71.7557 89.5062 66.7712 109.147 66.8203C133.309 66.413 156.886 74.2714 175.972 89.0937C195.024 103.906 208.077 125.107 212.725 148.786H142.336C140.31 141.363 135.799 134.86 129.556 130.36C123.313 125.861 115.717 123.638 108.033 124.063C102.407 123.881 96.823 125.086 91.773 127.572C86.723 130.058 82.3624 133.749 79.0758 138.318C71.2133 150.074 67.3829 164.066 68.1611 178.187C67.3979 192.447 71.223 206.575 79.0758 218.502C82.4135 223.002 86.79 226.629 91.8322 229.072C96.8744 231.515 102.433 232.703 108.033 232.535C115.658 232.984 123.209 230.825 129.444 226.412C135.678 222 140.225 215.597 142.336 208.257H212.725C207.904 231.52 195.148 252.385 176.64 267.281C157.589 282.168 133.989 290.034 109.815 289.555C90.2417 289.977 70.8957 285.295 53.6824 275.968C37.1652 267.156 23.6078 253.677 14.7014 237.212C5.22033 219.015 0.543362 198.698 1.1137 178.187C0.666667 157.903 5.33983 137.832 14.7014 119.831Z" fill="white"/>
<path d="M289.573 275.745C272.887 266.955 259.055 253.588 249.701 237.212C239.484 219.238 234.255 198.86 234.554 178.187C234.123 157.697 239.2 137.467 249.256 119.608C258.744 103.237 272.739 89.9385 289.573 81.298C307.117 71.8954 326.693 66.9251 346.597 66.8203C366.434 66.5868 386.021 71.2538 403.621 80.4071C420.539 89.136 434.549 102.603 443.938 119.163C454.072 137.152 459.152 157.547 458.64 178.187C459.007 198.628 453.851 218.789 443.716 236.544C434.185 253.072 420.116 266.522 403.175 275.3C385.446 284.533 365.694 289.203 345.706 288.886C326.195 289.23 306.904 284.714 289.573 275.745ZM378.673 218.28C383.325 212.762 386.842 206.38 389.021 199.5C391.2 192.62 391.998 185.377 391.37 178.187C392.318 163.908 387.777 149.806 378.673 138.763C374.52 134.486 369.552 131.086 364.061 128.764C358.571 126.442 352.67 125.246 346.708 125.246C340.747 125.246 334.846 126.442 329.356 128.764C323.865 131.086 318.896 134.486 314.744 138.763C305.64 149.816 301.028 163.89 301.825 178.187C300.89 192.496 305.339 206.638 314.299 217.834C318.194 222.321 323.024 225.901 328.449 228.325C333.875 230.749 339.765 231.958 345.706 231.866C351.855 232.107 357.984 231.017 363.673 228.672C369.363 226.327 374.479 222.783 378.673 218.28Z" fill="white"/>
<path d="M493.166 119.831C500.609 103.994 512.436 90.6212 527.246 81.298C541.659 71.9842 558.423 66.9629 575.583 66.8203C589.017 66.7533 602.284 69.803 614.341 75.7296C625.447 81.2646 634.954 89.5448 641.962 99.7849V0H708.787V286.214H641.962V255.476C635.477 265.924 626.328 274.457 615.455 280.2C603.117 286.475 589.422 289.611 575.583 289.332C558.501 289.53 541.723 284.814 527.246 275.745C512.461 266.199 500.653 252.693 493.166 236.767C484.415 218.5 480.067 198.437 480.469 178.187C480.035 158.006 484.386 138.008 493.166 119.831ZM628.152 139.654C623.896 135.065 618.721 131.423 612.964 128.967C607.207 126.511 600.997 125.295 594.739 125.399C588.498 125.267 582.298 126.447 576.542 128.865C570.786 131.282 565.602 134.882 561.327 139.432C556.598 144.663 552.96 150.786 550.627 157.44C548.294 164.095 547.312 171.148 547.739 178.187C546.93 192.534 551.813 206.62 561.327 217.389C565.634 221.917 570.817 225.523 576.561 227.987C582.304 230.451 588.489 231.722 594.739 231.722C600.989 231.722 607.174 230.451 612.918 227.987C618.662 225.523 623.844 221.917 628.152 217.389C632.923 212.087 636.6 205.894 638.97 199.166C641.34 192.439 642.357 185.309 641.962 178.187C642.629 164.023 637.664 150.171 628.152 139.654Z" fill="white"/>
<path d="M852.014 289.555C832.231 289.951 812.676 285.274 795.213 275.968C779.139 266.943 765.995 253.491 757.346 237.212C747.478 219.118 742.416 198.796 742.645 178.187C742.54 157.806 747.598 137.73 757.346 119.831C766.045 103.495 779.373 90.0906 795.659 81.298C812.802 71.9004 832.018 66.9245 851.569 66.8203C870.865 66.4936 889.935 71.0119 907.033 79.9616C923.006 88.5919 936.211 101.565 945.123 117.381C954.583 134.792 959.343 154.368 958.934 174.178C958.917 180.66 958.471 187.133 957.597 193.556H808.356C808.52 205.088 813.152 216.106 821.275 224.293C830.056 231.04 840.955 234.436 852.014 233.871M890.995 157.696C891.242 152.618 890.327 147.552 888.32 142.881C886.313 138.211 883.266 134.06 879.412 130.745C871.351 123.904 861.021 120.329 850.455 120.722C840.314 120.398 830.407 123.806 822.611 130.3C814.744 137.44 809.688 147.156 808.356 157.696H890.995Z" fill="white"/>
<path d="M1091.47 0L1027.09 286.214H960.27L1026.2 0H1091.47Z" fill="white"/>
<path d="M1106.84 119.831C1114.44 104.026 1126.32 90.6735 1141.14 81.298C1155.46 71.9566 1172.16 66.9309 1189.26 66.8203C1203.19 66.5351 1216.98 69.7516 1229.35 76.1751C1240.16 81.7281 1249.24 90.1217 1255.64 100.453V70.8295H1322.46V286.214H1255.64V255.699C1248.93 265.988 1239.74 274.416 1228.91 280.2C1216.57 286.475 1202.87 289.611 1189.03 289.332C1172.09 289.558 1155.44 284.837 1141.14 275.745C1126.35 266.141 1114.49 252.657 1106.84 236.766C1098.3 218.435 1094.04 198.406 1094.37 178.187C1093.97 158.034 1098.24 138.062 1106.84 119.831ZM1242.05 139.654C1237.79 135.065 1232.62 131.423 1226.86 128.967C1221.1 126.511 1214.89 125.295 1208.64 125.399C1202.39 125.267 1196.19 126.447 1190.44 128.865C1184.68 131.282 1179.5 134.882 1175.22 139.432C1170.46 144.652 1166.79 150.768 1164.42 157.421C1162.05 164.075 1161.03 171.134 1161.41 178.187C1160.66 192.564 1165.63 206.655 1175.22 217.389C1179.53 221.917 1184.71 225.523 1190.46 227.987C1196.2 230.451 1202.39 231.722 1208.64 231.722C1214.89 231.722 1221.07 230.451 1226.81 227.987C1232.56 225.523 1237.74 221.917 1242.05 217.389C1246.79 212.076 1250.43 205.876 1252.76 199.148C1255.1 192.419 1256.07 185.295 1255.64 178.187C1256.36 164.054 1251.48 150.206 1242.05 139.654Z" fill="white"/>
<path d="M1462.35 77.0661C1474.49 70.3606 1488.13 66.8359 1502 66.8203C1519.07 66.6963 1535.83 71.4068 1550.33 80.4071C1565.04 89.8507 1576.84 103.19 1584.41 118.94C1593.25 137.406 1597.53 157.724 1596.89 178.187C1597.37 198.42 1593.09 218.484 1584.41 236.767C1576.78 252.598 1565 266.067 1550.33 275.745C1535.86 284.814 1519.08 289.53 1502 289.332C1488.22 289.64 1474.59 286.5 1462.35 280.2C1451.49 274.648 1442.28 266.355 1435.62 256.144V286.214H1368.79V0H1435.62V101.344C1442.13 90.9519 1451.38 82.5525 1462.35 77.0661ZM1516.03 139.432C1511.73 134.854 1506.51 131.237 1500.71 128.819C1494.91 126.401 1488.67 125.235 1482.39 125.399C1476.14 125.295 1469.93 126.511 1464.17 128.967C1458.41 131.423 1453.24 135.065 1448.98 139.654C1439.47 150.171 1434.5 164.023 1435.17 178.187C1434.43 192.496 1439.4 206.513 1448.98 217.166C1453.29 221.695 1458.47 225.3 1464.21 227.764C1469.96 230.228 1476.14 231.499 1482.39 231.499C1488.64 231.499 1494.83 230.228 1500.57 227.764C1506.32 225.3 1511.5 221.695 1515.81 217.166C1520.6 211.915 1524.31 205.768 1526.72 199.079C1529.13 192.389 1530.19 185.289 1529.84 178.187C1530.22 171.134 1529.2 164.075 1526.83 157.421C1524.46 150.768 1520.79 144.652 1516.03 139.432Z" fill="white"/>
<path d="M905.697 289.332C922.797 289.332 936.659 275.471 936.659 258.372C936.659 241.273 922.797 227.412 905.697 227.412C888.597 227.412 874.735 241.273 874.735 258.372C874.735 275.471 888.597 289.332 905.697 289.332Z" fill="#F26F71"/>
</svg>
